<svg width="20" height="20" viewBox="0 0 20 20" fill="none" xmlns="http://www.w3.org/2000/svg">
<path d="M17.5 9.16667C17.279 9.16667 17.067 9.25447 16.9107 9.41075C16.7545 9.56703 16.6667 9.77899 16.6667 10C16.6766 11.5609 16.1419 13.0763 15.1547 14.2854C14.1675 15.4944 12.7896 16.3214 11.2583 16.6238C9.72698 16.9263 8.13814 16.6853 6.76541 15.9423C5.39268 15.1994 4.322 14.001 3.73776 12.5535C3.15353 11.1061 3.09232 9.50026 3.56467 8.01256C4.03703 6.52486 5.01338 5.24845 6.32558 4.40315C7.63777 3.55785 9.20366 3.1966 10.7535 3.38159C12.3034 3.56659 13.7403 4.28627 14.8167 5.41667H12.8167C12.5956 5.41667 12.3837 5.50446 12.2274 5.66075C12.0711 5.81703 11.9833 6.02899 11.9833 6.25C11.9833 6.47101 12.0711 6.68298 12.2274 6.83926C12.3837 6.99554 12.5956 7.08333 12.8167 7.08333H16.5917C16.8127 7.08333 17.0246 6.99554 17.1809 6.83926C17.3372 6.68298 17.425 6.47101 17.425 6.25V2.5C17.425 2.27899 17.3372 2.06703 17.1809 1.91075C17.0246 1.75447 16.8127 1.66667 16.5917 1.66667C16.3706 1.66667 16.1587 1.75447 16.0024 1.91075C15.8461 2.06703 15.7583 2.27899 15.7583 2.5V3.975C14.3706 2.64838 12.5673 1.84163 10.6533 1.69111C8.7394 1.54059 6.83218 2.05554 5.25409 3.14891C3.676 4.24228 2.52383 5.84701 1.99235 7.69183C1.46087 9.53665 1.58267 11.5084 2.33717 13.2738C3.09166 15.0392 4.43258 16.4899 6.13324 17.3807C7.8339 18.2715 9.78999 18.5478 11.6709 18.1629C13.5517 17.778 15.242 16.7554 16.4559 15.2681C17.6699 13.7807 18.333 11.9199 18.3333 10C18.3333 9.77899 18.2455 9.56703 18.0892 9.41075C17.933 9.25447 17.721 9.16667 17.5 9.16667Z" fill="#F7FBFE"/>
</svg>
